<svg width="19" height="20" viewBox="0 0 19 20" fill="none" xmlns="http://www.w3.org/2000/svg">
<path d="M7.80704 10.4773C7.51207 10.4773 7.27295 10.7164 7.27295 11.0114C7.27295 11.3064 7.51207 11.5455 7.80704 11.5455C8.10201 11.5455 8.34113 11.3064 8.34113 11.0114C8.34113 10.7164 8.10201 10.4773 7.80704 10.4773Z" fill="#637381"/>
<path opacity="0.4" d="M13.9254 0.833374H4.77327C2.25608 0.833374 0.189941 2.89951 0.189941 5.43125V14.5834C0.189941 17.1005 2.25608 19.1667 4.77327 19.1667H13.9254C16.4571 19.1667 18.5233 17.1005 18.5233 14.5688V5.43125C18.5233 2.89951 16.4571 0.833374 13.9254 0.833374Z" fill="#637381"/>
<path d="M10.4771 11.0114C10.4771 10.7164 10.7162 10.4773 11.0111 10.4773C11.3061 10.4773 11.5452 10.7164 11.5452 11.0114C11.5452 11.3064 11.3061 11.5455 11.0111 11.5455C10.7162 11.5455 10.4771 11.3064 10.4771 11.0114Z" fill="#637381"/>
<path fill-rule="evenodd" clip-rule="evenodd" d="M9.40887 3C8.81891 3 8.34069 3.47824 8.34069 4.06818C8.34069 4.46356 8.5555 4.80877 8.87478 4.99346V6.20455H6.20432C5.31941 6.20455 4.60205 6.92191 4.60205 7.80682V13.1477C4.60205 14.0327 5.31941 14.75 6.20432 14.75H12.6134C13.4983 14.75 14.2157 14.0327 14.2157 13.1477V7.80682C14.2157 6.92191 13.4983 6.20455 12.6134 6.20455H9.94296V4.99346C10.2622 4.80877 10.4771 4.46356 10.4771 4.06818C10.4771 3.47824 9.99883 3 9.40887 3ZM5.67023 7.80682C5.67023 7.51185 5.90936 7.27273 6.20432 7.27273H6.94242L7.71536 8.8186C7.8963 9.1805 8.26618 9.40909 8.67075 9.40909H10.147C10.5516 9.40909 10.9214 9.1805 11.1024 8.8186L11.8753 7.27273H12.6134C12.9084 7.27273 13.1475 7.51185 13.1475 7.80682V13.1477C13.1475 13.4427 12.9084 13.6818 12.6134 13.6818H6.20432C5.90936 13.6818 5.67023 13.4427 5.67023 13.1477V7.80682ZM10.147 8.34091L10.6811 7.27273H8.13668L8.67075 8.34091H10.147Z" fill="#637381"/>
<path d="M3.53409 9.94324C3.23912 9.94324 3 10.1823 3 10.4773V11.5455C3 11.8405 3.23912 12.0796 3.53409 12.0796C3.82906 12.0796 4.06818 11.8405 4.06818 11.5455V10.4773C4.06818 10.1823 3.82906 9.94324 3.53409 9.94324Z" fill="#637381"/>
<path d="M14.75 10.4773C14.75 10.1823 14.9891 9.94324 15.2841 9.94324C15.5791 9.94324 15.8182 10.1823 15.8182 10.4773V11.5455C15.8182 11.8405 15.5791 12.0796 15.2841 12.0796C14.9891 12.0796 14.75 11.8405 14.75 11.5455V10.4773Z" fill="#637381"/>
</svg>
